<mxfile host="app.diagrams.net" agent="Mozilla/5.0 (Windows NT 10.0; Win64; x64; rv:140.0) Gecko/20100101 Firefox/140.0" version="28.0.6">
  <diagram name="PÃ¡gina-1" id="C2hM-yKv2FyWArT03CXD">
    <mxGraphModel dx="1426" dy="779" grid="1" gridSize="10" guides="1" tooltips="1" connect="1" arrows="1" fold="1" page="1" pageScale="1" pageWidth="827" pageHeight="1169" math="0" shadow="0">
      <root>
        <mxCell id="0" />
        <mxCell id="1" parent="0" />
        <mxCell id="lpw_EAhtdx-yHLIlQrwJ-14" value="" style="edgeStyle=orthogonalEdgeStyle;rounded=0;orthogonalLoop=1;jettySize=auto;html=1;fontSize=14;labelBorderColor=default;strokeWidth=2;strokeColor=light-dark(#000000,#999999);" edge="1" parent="1" source="lpw_EAhtdx-yHLIlQrwJ-1" target="lpw_EAhtdx-yHLIlQrwJ-2">
          <mxGeometry relative="1" as="geometry" />
        </mxCell>
        <mxCell id="lpw_EAhtdx-yHLIlQrwJ-1" value="Command and arguments input" style="ellipse;whiteSpace=wrap;html=1;fontSize=14;fillColor=#0050ef;fontColor=light-dark(#FFFFFF,#FFFFFF);strokeColor=#001DBC;gradientColor=none;shadow=0;labelBackgroundColor=none;labelBorderColor=none;textShadow=0;" vertex="1" parent="1">
          <mxGeometry x="320" y="30" width="120" height="80" as="geometry" />
        </mxCell>
        <mxCell id="lpw_EAhtdx-yHLIlQrwJ-15" value="" style="edgeStyle=orthogonalEdgeStyle;rounded=0;orthogonalLoop=1;jettySize=auto;html=1;fontSize=14;strokeWidth=2;strokeColor=light-dark(#000000,#999999);" edge="1" parent="1" source="lpw_EAhtdx-yHLIlQrwJ-2" target="lpw_EAhtdx-yHLIlQrwJ-3">
          <mxGeometry relative="1" as="geometry" />
        </mxCell>
        <mxCell id="lpw_EAhtdx-yHLIlQrwJ-2" value="Command validation" style="rounded=1;whiteSpace=wrap;html=1;fontSize=14;fillColor=#0050ef;fontColor=light-dark(#FFFFFF,#FFFFFF);strokeColor=#001DBC;" vertex="1" parent="1">
          <mxGeometry x="320" y="150" width="120" height="60" as="geometry" />
        </mxCell>
        <mxCell id="lpw_EAhtdx-yHLIlQrwJ-16" value="" style="edgeStyle=orthogonalEdgeStyle;rounded=0;orthogonalLoop=1;jettySize=auto;html=1;fontSize=14;strokeWidth=2;strokeColor=light-dark(#000000,#999999);" edge="1" parent="1" source="lpw_EAhtdx-yHLIlQrwJ-3" target="lpw_EAhtdx-yHLIlQrwJ-5">
          <mxGeometry relative="1" as="geometry" />
        </mxCell>
        <mxCell id="lpw_EAhtdx-yHLIlQrwJ-3" value="Arguments Validation" style="rounded=1;whiteSpace=wrap;html=1;fontSize=14;fillColor=#6d8764;fontColor=light-dark(#FFFFFF,#FFFFFF);strokeColor=#3A5431;" vertex="1" parent="1">
          <mxGeometry x="320" y="250" width="120" height="60" as="geometry" />
        </mxCell>
        <mxCell id="lpw_EAhtdx-yHLIlQrwJ-19" style="edgeStyle=orthogonalEdgeStyle;rounded=0;orthogonalLoop=1;jettySize=auto;html=1;entryX=0.5;entryY=0;entryDx=0;entryDy=0;fontSize=14;strokeWidth=2;strokeColor=light-dark(#000000,#999999);" edge="1" parent="1" source="lpw_EAhtdx-yHLIlQrwJ-4" target="lpw_EAhtdx-yHLIlQrwJ-8">
          <mxGeometry relative="1" as="geometry" />
        </mxCell>
        <mxCell id="lpw_EAhtdx-yHLIlQrwJ-20" style="edgeStyle=orthogonalEdgeStyle;rounded=0;orthogonalLoop=1;jettySize=auto;html=1;entryX=0.5;entryY=0;entryDx=0;entryDy=0;fontSize=14;strokeWidth=2;strokeColor=light-dark(#000000,#999999);" edge="1" parent="1" source="lpw_EAhtdx-yHLIlQrwJ-4" target="lpw_EAhtdx-yHLIlQrwJ-11">
          <mxGeometry relative="1" as="geometry">
            <Array as="points">
              <mxPoint x="220" y="530" />
              <mxPoint x="150" y="530" />
            </Array>
          </mxGeometry>
        </mxCell>
        <mxCell id="lpw_EAhtdx-yHLIlQrwJ-21" style="edgeStyle=orthogonalEdgeStyle;rounded=0;orthogonalLoop=1;jettySize=auto;html=1;entryX=0.5;entryY=0;entryDx=0;entryDy=0;fontSize=14;strokeWidth=2;strokeColor=light-dark(#000000,#999999);" edge="1" parent="1" source="lpw_EAhtdx-yHLIlQrwJ-4" target="lpw_EAhtdx-yHLIlQrwJ-9">
          <mxGeometry relative="1" as="geometry">
            <Array as="points">
              <mxPoint x="220" y="530" />
              <mxPoint x="290" y="530" />
            </Array>
          </mxGeometry>
        </mxCell>
        <mxCell id="lpw_EAhtdx-yHLIlQrwJ-4" value="Prepare&amp;nbsp; command parameters" style="rounded=1;whiteSpace=wrap;html=1;fontSize=14;fillColor=#60a917;strokeColor=#2D7600;fontColor=light-dark(#FFFFFF,#FFFFFF);" vertex="1" parent="1">
          <mxGeometry x="160" y="440" width="120" height="60" as="geometry" />
        </mxCell>
        <mxCell id="lpw_EAhtdx-yHLIlQrwJ-17" style="edgeStyle=orthogonalEdgeStyle;rounded=0;orthogonalLoop=1;jettySize=auto;html=1;entryX=0.5;entryY=0;entryDx=0;entryDy=0;fontSize=14;strokeColor=light-dark(#000000,#999999);strokeWidth=2;" edge="1" parent="1" source="lpw_EAhtdx-yHLIlQrwJ-5" target="lpw_EAhtdx-yHLIlQrwJ-7">
          <mxGeometry relative="1" as="geometry" />
        </mxCell>
        <mxCell id="lpw_EAhtdx-yHLIlQrwJ-18" style="edgeStyle=orthogonalEdgeStyle;rounded=0;orthogonalLoop=1;jettySize=auto;html=1;entryX=0.5;entryY=0;entryDx=0;entryDy=0;fontSize=14;strokeWidth=2;strokeColor=light-dark(#000000,#999999);" edge="1" parent="1" source="lpw_EAhtdx-yHLIlQrwJ-5" target="lpw_EAhtdx-yHLIlQrwJ-4">
          <mxGeometry relative="1" as="geometry" />
        </mxCell>
        <mxCell id="lpw_EAhtdx-yHLIlQrwJ-5" value="Command execution" style="rhombus;whiteSpace=wrap;html=1;fontSize=14;fontColor=light-dark(#FFFFFF,#FFFFFF);fillColor=#0050ef;strokeColor=#001DBC;" vertex="1" parent="1">
          <mxGeometry x="330" y="350" width="100" height="100" as="geometry" />
        </mxCell>
        <mxCell id="lpw_EAhtdx-yHLIlQrwJ-6" value="Display results" style="ellipse;whiteSpace=wrap;html=1;fontSize=14;" vertex="1" parent="1">
          <mxGeometry x="320" y="850" width="120" height="80" as="geometry" />
        </mxCell>
        <mxCell id="lpw_EAhtdx-yHLIlQrwJ-24" style="edgeStyle=orthogonalEdgeStyle;rounded=0;orthogonalLoop=1;jettySize=auto;html=1;entryX=0.5;entryY=0;entryDx=0;entryDy=0;fontSize=14;strokeWidth=2;strokeColor=light-dark(#000000,#999999);" edge="1" parent="1" source="lpw_EAhtdx-yHLIlQrwJ-7" target="lpw_EAhtdx-yHLIlQrwJ-13">
          <mxGeometry relative="1" as="geometry" />
        </mxCell>
        <mxCell id="lpw_EAhtdx-yHLIlQrwJ-7" value="Create&amp;nbsp; &amp;nbsp;connection via socket" style="rounded=1;whiteSpace=wrap;html=1;fontSize=14;fillColor=#008a00;fontColor=default;strokeColor=#005700;" vertex="1" parent="1">
          <mxGeometry x="480" y="440" width="120" height="60" as="geometry" />
        </mxCell>
        <mxCell id="lpw_EAhtdx-yHLIlQrwJ-23" style="edgeStyle=orthogonalEdgeStyle;rounded=0;orthogonalLoop=1;jettySize=auto;html=1;entryX=0.5;entryY=0;entryDx=0;entryDy=0;fontSize=14;strokeColor=light-dark(#000000,#999999);strokeWidth=2;" edge="1" parent="1" source="lpw_EAhtdx-yHLIlQrwJ-8" target="lpw_EAhtdx-yHLIlQrwJ-12">
          <mxGeometry relative="1" as="geometry" />
        </mxCell>
        <mxCell id="lpw_EAhtdx-yHLIlQrwJ-8" value="&amp;nbsp; &amp;nbsp; &amp;nbsp; Sniff&amp;nbsp; &amp;nbsp; &amp;nbsp; &amp;nbsp; &amp;nbsp;response packets" style="rounded=1;whiteSpace=wrap;html=1;fontSize=14;fillColor=#e3c800;fontColor=#000000;strokeColor=#B09500;" vertex="1" parent="1">
          <mxGeometry x="160" y="650" width="120" height="60" as="geometry" />
        </mxCell>
        <mxCell id="lpw_EAhtdx-yHLIlQrwJ-9" value="Send probe packets" style="rounded=1;whiteSpace=wrap;html=1;fontSize=14;fillColor=#f0a30a;strokeColor=#BD7000;fontColor=#000000;" vertex="1" parent="1">
          <mxGeometry x="230" y="570" width="120" height="60" as="geometry" />
        </mxCell>
        <mxCell id="lpw_EAhtdx-yHLIlQrwJ-11" value="Build packets" style="rounded=1;whiteSpace=wrap;html=1;fontSize=14;fillColor=#647687;fontColor=light-dark(#FFFFFF,#FFFFFF);strokeColor=#314354;" vertex="1" parent="1">
          <mxGeometry x="90" y="570" width="120" height="60" as="geometry" />
        </mxCell>
        <mxCell id="lpw_EAhtdx-yHLIlQrwJ-25" style="edgeStyle=orthogonalEdgeStyle;rounded=0;orthogonalLoop=1;jettySize=auto;html=1;entryX=0;entryY=0.5;entryDx=0;entryDy=0;fontSize=14;strokeWidth=2;strokeColor=light-dark(#000000,#999999);" edge="1" parent="1" source="lpw_EAhtdx-yHLIlQrwJ-12" target="lpw_EAhtdx-yHLIlQrwJ-6">
          <mxGeometry relative="1" as="geometry">
            <Array as="points">
              <mxPoint x="220" y="890" />
            </Array>
          </mxGeometry>
        </mxCell>
        <mxCell id="lpw_EAhtdx-yHLIlQrwJ-12" value="&amp;nbsp; &amp;nbsp;Dissect&amp;nbsp; &amp;nbsp; response packets" style="rounded=1;whiteSpace=wrap;html=1;fontSize=14;fillColor=light-dark(#E51400,#CC0000);fontColor=light-dark(#FFFFFF,#FFFFFF);strokeColor=#B20000;" vertex="1" parent="1">
          <mxGeometry x="160" y="770" width="120" height="60" as="geometry" />
        </mxCell>
        <mxCell id="lpw_EAhtdx-yHLIlQrwJ-26" style="edgeStyle=orthogonalEdgeStyle;rounded=0;orthogonalLoop=1;jettySize=auto;html=1;entryX=1;entryY=0.5;entryDx=0;entryDy=0;fontSize=14;strokeWidth=2;strokeColor=light-dark(#000000,#999999);" edge="1" parent="1" source="lpw_EAhtdx-yHLIlQrwJ-13" target="lpw_EAhtdx-yHLIlQrwJ-6">
          <mxGeometry relative="1" as="geometry">
            <Array as="points">
              <mxPoint x="540" y="890" />
            </Array>
          </mxGeometry>
        </mxCell>
        <mxCell id="lpw_EAhtdx-yHLIlQrwJ-13" value="Get information from the target" style="rounded=1;whiteSpace=wrap;html=1;fontSize=14;fillColor=#008a00;fontColor=default;strokeColor=#005700;" vertex="1" parent="1">
          <mxGeometry x="480" y="770" width="120" height="60" as="geometry" />
        </mxCell>
        <mxCell id="lpw_EAhtdx-yHLIlQrwJ-28" value="" style="ellipse;whiteSpace=wrap;html=1;aspect=fixed;fillColor=light-dark(#1BA1E2,#0000FF);fontColor=#ffffff;strokeColor=#006EAF;" vertex="1" parent="1">
          <mxGeometry x="350" y="40" width="10" height="10" as="geometry" />
        </mxCell>
        <mxCell id="lpw_EAhtdx-yHLIlQrwJ-29" value="" style="ellipse;whiteSpace=wrap;html=1;aspect=fixed;fillColor=light-dark(#1BA1E2,#0000FF);fontColor=#ffffff;strokeColor=#006EAF;" vertex="1" parent="1">
          <mxGeometry x="330" y="160" width="10" height="10" as="geometry" />
        </mxCell>
        <mxCell id="lpw_EAhtdx-yHLIlQrwJ-31" value="" style="ellipse;whiteSpace=wrap;html=1;aspect=fixed;fillColor=light-dark(#1BA1E2,#0000FF);fontColor=#ffffff;strokeColor=#006EAF;" vertex="1" parent="1">
          <mxGeometry x="330" y="260" width="10" height="10" as="geometry" />
        </mxCell>
        <mxCell id="lpw_EAhtdx-yHLIlQrwJ-32" value="" style="ellipse;whiteSpace=wrap;html=1;aspect=fixed;fillColor=light-dark(#1BA1E2,#0000FF);fontColor=#ffffff;strokeColor=#006EAF;" vertex="1" parent="1">
          <mxGeometry x="375" y="370" width="10" height="10" as="geometry" />
        </mxCell>
        <mxCell id="lpw_EAhtdx-yHLIlQrwJ-33" value="" style="ellipse;whiteSpace=wrap;html=1;aspect=fixed;fillColor=light-dark(#1BA1E2,#0000FF);fontColor=#ffffff;strokeColor=#006EAF;" vertex="1" parent="1">
          <mxGeometry x="170" y="450" width="10" height="10" as="geometry" />
        </mxCell>
        <mxCell id="lpw_EAhtdx-yHLIlQrwJ-34" value="" style="ellipse;whiteSpace=wrap;html=1;aspect=fixed;fillColor=light-dark(#1BA1E2,#0000FF);fontColor=#ffffff;strokeColor=#006EAF;" vertex="1" parent="1">
          <mxGeometry x="490" y="450" width="10" height="10" as="geometry" />
        </mxCell>
        <mxCell id="lpw_EAhtdx-yHLIlQrwJ-35" value="" style="ellipse;whiteSpace=wrap;html=1;aspect=fixed;fillColor=light-dark(#1BA1E2,#0000FF);fontColor=#ffffff;strokeColor=#006EAF;" vertex="1" parent="1">
          <mxGeometry x="170" y="660" width="10" height="10" as="geometry" />
        </mxCell>
        <mxCell id="lpw_EAhtdx-yHLIlQrwJ-36" value="" style="ellipse;whiteSpace=wrap;html=1;aspect=fixed;fillColor=light-dark(#1BA1E2,#0000FF);fontColor=#ffffff;strokeColor=#006EAF;" vertex="1" parent="1">
          <mxGeometry x="170" y="780" width="10" height="10" as="geometry" />
        </mxCell>
        <mxCell id="lpw_EAhtdx-yHLIlQrwJ-37" value="" style="ellipse;whiteSpace=wrap;html=1;aspect=fixed;fillColor=light-dark(#1BA1E2,#0000FF);fontColor=#ffffff;strokeColor=#006EAF;" vertex="1" parent="1">
          <mxGeometry x="350" y="870" width="10" height="10" as="geometry" />
        </mxCell>
      </root>
    </mxGraphModel>
  </diagram>
</mxfile>
